<?xml version="1.0" encoding="utf-8"?>
<!-- Generator: Adobe Illustrator 16.0.0, SVG Export Plug-In . SVG Version: 6.00 Build 0)  -->
<!DOCTYPE svg PUBLIC "-//W3C//DTD SVG 1.1//EN" "http://www.w3.org/Graphics/SVG/1.1/DTD/svg11.dtd">
<svg version="1.1" id="Livello_1" xmlns="http://www.w3.org/2000/svg" xmlns:xlink="http://www.w3.org/1999/xlink" x="0px" y="0px"
	 width="16px" height="16px" viewBox="0 0 16 16" enable-background="new 0 0 16 16" xml:space="preserve">
<g>
	<g>
		<defs>
			<path id="SVGID_1_" d="M1.465,6.542c-0.755,0-1.368,0.608-1.368,1.358c0,0.751,0.613,1.357,1.368,1.357h10.461
				c0.756,0,1.368-0.606,1.368-1.357c0-0.75-0.612-1.358-1.368-1.358H1.465z"/>
		</defs>
		<use xlink:href="#SVGID_1_"  overflow="visible" fill="#E95C1E"/>
		<clipPath id="SVGID_2_">
			<use xlink:href="#SVGID_1_"  overflow="visible"/>
		</clipPath>
	</g>
	<g>
		<defs>
			<path id="SVGID_3_" d="M3.993,1.157c-0.755,0-1.369,0.608-1.369,1.358c0,0.751,0.614,1.36,1.369,1.36h10.46
				c0.755,0,1.368-0.609,1.368-1.36c0-0.75-0.613-1.358-1.368-1.358H3.993z"/>
		</defs>
		<use xlink:href="#SVGID_3_"  overflow="visible" fill="#E95C1E"/>
		<clipPath id="SVGID_4_">
			<use xlink:href="#SVGID_3_"  overflow="visible"/>
		</clipPath>
	</g>
	<g>
		<defs>
			<path id="SVGID_5_" d="M3.993,11.999c-0.755,0-1.369,0.608-1.369,1.359c0,0.75,0.614,1.359,1.369,1.359h10.46
				c0.755,0,1.368-0.609,1.368-1.359c0-0.751-0.613-1.359-1.368-1.359H3.993z"/>
		</defs>
		<use xlink:href="#SVGID_5_"  overflow="visible" fill="#E95C1E"/>
		<clipPath id="SVGID_6_">
			<use xlink:href="#SVGID_5_"  overflow="visible"/>
		</clipPath>
	</g>
</g>
</svg>
