<?xml version="1.0" encoding="utf-8"?>
<!-- Generator: Adobe Illustrator 16.0.0, SVG Export Plug-In . SVG Version: 6.00 Build 0)  -->
<!DOCTYPE svg PUBLIC "-//W3C//DTD SVG 1.1//EN" "http://www.w3.org/Graphics/SVG/1.1/DTD/svg11.dtd">
<svg version="1.1" id="Livello_1" xmlns="http://www.w3.org/2000/svg" xmlns:xlink="http://www.w3.org/1999/xlink" x="0px" y="0px"
	 width="662.967px" height="212.99px" viewBox="0 0 662.967 212.99" enable-background="new 0 0 662.967 212.99"
	 xml:space="preserve">
<g>
	<defs>
		<path id="SVGID_1_" d="M58.695,82.278c-3.727,0-6.75,3.001-6.75,6.703c0,3.702,3.023,6.701,6.75,6.701h51.587
			c3.73,0,6.751-3,6.751-6.701c0-3.701-3.021-6.703-6.751-6.703H58.695z"/>
	</defs>
	<use xlink:href="#SVGID_1_"  overflow="visible" fill="#E95C1F"/>
	<clipPath id="SVGID_2_">
		<use xlink:href="#SVGID_1_"  overflow="visible"/>
	</clipPath>
</g>
<rect x="210.743" y="81.871" fill="#3D3D3B" width="22.898" height="14.582"/>
<path fill="#3D3D3B" d="M603.485,55.611h0.853c0.812,0,1.238,0.355,1.238,0.911c0,0.595-0.497,0.965-1.336,0.965h-0.755V55.611z
	 M604.434,52.239c3.14,0,5.681,2.543,5.681,5.683c0,3.14-2.541,5.681-5.681,5.681c-3.138,0-5.682-2.541-5.682-5.681
	C598.752,54.782,601.296,52.239,604.434,52.239 M604.434,53.179c-2.615,0-4.743,2.122-4.743,4.743c0,2.617,2.128,4.739,4.743,4.739
	c2.621,0,4.742-2.122,4.742-4.739C609.176,55.301,607.055,53.179,604.434,53.179 M602.602,61.009h0.884v-2.744h0.53
	c0.473,0,0.763,0,1.036,0.601l0.947,2.143h1.009l-1.168-2.461c-0.193-0.378-0.328-0.513-0.604-0.618
	c0.72-0.143,1.275-0.673,1.275-1.426c0-1.479-1.176-1.671-2.398-1.671h-1.512V61.009z"/>
<path fill="#3D3D3B" d="M261.106,119.042V74.341c0,0,5.378-2.153,10.638-2.153c7.409,0,8.366,5.378,8.366,16.136v30.718h16.018
	V88.084c0-4.661-0.48-13.624-0.48-13.624s6.334-2.272,11.115-2.272c7.172,0,8.365,5.856,8.365,14.94v31.913h16.017V86.651
	c0-19.241-4.782-28.805-21.037-28.805c-9.083,0-20.079,5.619-20.079,5.619c-3.586-3.827-8.247-5.619-14.941-5.619
	c-5.855,0-14.103,4.78-14.103,4.78v-3.344H245.09v59.76H261.106z M369.75,57.846c-20.797,0-27.492,12.79-27.492,31.195
	c0,18.406,6.695,31.436,27.492,31.436s27.49-13.029,27.49-31.436C397.24,70.636,390.547,57.846,369.75,57.846 M369.75,106.851
	c-8.847,0-11.237-6.216-11.237-17.81s2.391-17.569,11.237-17.569c8.842,0,11.235,5.976,11.235,17.569
	S378.592,106.851,369.75,106.851 M442.06,72.908V59.282h-14.703V42.666h-16.015v16.616h-7.05v13.626h7.05v24.859
	c0,17.208,4.184,22.71,18.646,22.71c4.186,0,12.191-1.794,12.191-1.794l-0.718-12.79c0,0-5.737,0.24-9.082,0.24
	c-5.022,0-5.022-2.75-5.022-8.726v-24.5H442.06z M452.458,119.042h16.015v-59.76h-16.015V119.042z M452.458,51.631h16.015V35.376
	h-16.015V51.631z M507.676,57.846c-20.797,0-27.49,12.79-27.49,31.195c0,18.406,6.693,31.436,27.49,31.436
	s27.49-13.029,27.49-31.436C535.166,70.636,528.473,57.846,507.676,57.846 M507.676,106.851c-8.846,0-11.235-6.216-11.235-17.81
	s2.39-17.569,11.235-17.569c8.845,0,11.235,5.976,11.235,17.569S516.521,106.851,507.676,106.851 M562.896,119.042V74.341
	c0,0,5.257-2.153,10.876-2.153c7.768,0,8.963,5.856,8.963,14.94v31.913h16.017V86.651c0-18.285-4.304-28.805-21.034-28.805
	c-6.816,0-14.942,4.78-14.942,4.78v-3.344h-15.898v59.76H562.896z"/>
<path fill="#3D3D3B" d="M175.031,106.374c-8.605,0-11.952-3.229-12.07-10.399h35.14l1.194-11.116
	c0-18.047-8.485-27.014-26.055-27.014c-17.45,0-26.415,10.878-26.415,32.153c0,21.513,7.648,30.478,25.698,30.478
	c11.115,0,24.86-3.345,24.86-3.345l-0.239-11.834C197.145,105.296,184.833,106.374,175.031,106.374 M162.841,83.782
	c0.12-9.084,2.748-12.787,10.398-12.787c7.529,0,10.278,3.106,10.278,12.787H162.841z"/>
<path fill="#3D3D3B" d="M247.972,165.831V147.6c0,0,3.009-1.851,6.462-1.851c4.337,0,5.046,2.114,5.046,8.72v11.361h2.656v-11.449
	c0-2.908-0.178-5.551-0.665-6.781c0,0,3.1-1.851,6.728-1.851c4.383,0,5.092,2.157,5.092,8.632v11.449h2.61v-11.584
	c0-8.143-1.372-10.872-7.392-10.872c-4.072,0-7.967,2.332-7.967,2.332c-1.107-1.63-2.746-2.332-5.8-2.332
	c-3.409,0-6.771,2.067-6.771,2.067v-1.629h-2.61v22.018H247.972z M298.549,150.374c0-4.667-2.037-6.999-6.86-6.999
	c-3.718,0-8.586,0.922-8.586,0.922l0.131,2.112c0,0,5.179-0.659,8.366-0.659c2.833,0,4.34,1.277,4.34,4.624v2.069l-7.527,0.749
	c-4.47,0.44-6.507,2.377-6.507,6.43c0,4.403,2.169,6.648,6.065,6.648c4.16,0,8.319-1.807,8.319-1.807
	c1.197,1.322,2.833,1.762,5.004,1.762l0.131-2.112c-1.459-0.176-2.744-0.616-2.877-1.937V150.374z M295.939,154.514v7.968
	c0,0-4.028,1.543-7.614,1.543c-2.435,0-3.673-1.63-3.673-4.448c0-2.641,1.105-4.051,4.072-4.314L295.939,154.514z M322.968,134.039
	h-2.656v9.907c-0.841-0.133-3.63-0.571-5.578-0.571c-6.948,0-9.294,4.004-9.294,11.711c0,9.951,4.07,11.185,7.788,11.185
	c3.586,0,7.083-2.069,7.083-2.069v1.63h2.656V134.039z M313.497,163.89c-2.568,0-5.312-1.012-5.312-8.805
	c0-6.032,1.372-9.379,6.637-9.379c1.774,0,4.605,0.397,5.49,0.526V162C320.312,162,316.857,163.89,313.497,163.89 M338.445,163.89
	c-4.649,0-6.153-2.771-6.153-7.969h15.051l0.086-2.113c0-7.399-3.009-10.434-8.719-10.434c-5.4,0-9.116,3.034-9.116,11.535
	c0,7.354,1.991,11.315,8.584,11.36c3.452,0,8.456-0.615,8.456-0.615l-0.091-2.158C346.545,163.497,341.677,163.89,338.445,163.89
	 M332.292,153.72c0-5.856,2.389-8.059,6.418-8.059c4.161,0,6.062,2.114,6.062,8.059H332.292z M366.938,165.831h2.744v-5.901h3.939
	v-2.422h-3.939v-9.291h-2.744v9.291h-11.643l8.632-20.74h-3.01l-8.588,21.049v2.113h14.608V165.831z M387.55,163.89
	c-4.649,0-6.153-2.771-6.153-7.969h15.048l0.09-2.113c0-7.399-3.01-10.434-8.72-10.434c-5.398,0-9.119,3.034-9.119,11.535
	c0,7.354,1.993,11.315,8.589,11.36c3.452,0,8.452-0.615,8.452-0.615l-0.086-2.158C395.65,163.497,390.781,163.89,387.55,163.89
	 M381.396,153.72c0-5.856,2.389-8.059,6.418-8.059c4.162,0,6.063,2.114,6.063,8.059H381.396z M411.217,143.375
	c-6.598,0-9.164,2.993-9.164,11.052c0,8.672,1.948,11.844,9.119,11.844c1.901,0,5.841-0.527,5.841-0.527l-0.087-2.246
	c0,0-3.585,0.394-5.266,0.394c-5.801,0-6.861-2.553-6.861-9.464c0-6.343,1.549-8.677,6.861-8.677c1.681,0,5.178,0.44,5.178,0.44
	l0.134-2.244C416.972,143.946,413.122,143.375,411.217,143.375 M431.211,143.375c-6.861,0-9.297,3.345-9.297,11.14
	c0,8.321,1.858,11.756,9.297,11.756c7.391,0,9.247-3.435,9.247-11.756C440.458,146.719,438.026,143.375,431.211,143.375
	 M431.211,163.937c-5.758,0-6.553-2.688-6.553-9.423c0-6.607,1.46-8.808,6.553-8.808c5.045,0,6.549,2.2,6.549,8.808
	C437.76,161.25,436.921,163.937,431.211,163.937 M449.784,165.831V147.6c0,0,3.009-1.851,6.463-1.851
	c4.337,0,5.043,2.114,5.043,8.72v11.361h2.656v-11.449c0-2.908-0.175-5.551-0.661-6.781c0,0,3.102-1.851,6.73-1.851
	c4.378,0,5.088,2.157,5.088,8.632v11.449h2.611v-11.584c0-8.143-1.373-10.872-7.393-10.872c-4.07,0-7.965,2.332-7.965,2.332
	c-1.108-1.63-2.744-2.332-5.798-2.332c-3.409,0-6.775,2.067-6.775,2.067v-1.629h-2.611v22.018H449.784z M487.747,165.831V147.6
	c0,0,3.013-1.851,6.463-1.851c4.337,0,5.047,2.114,5.047,8.72v11.361h2.654v-11.449c0-2.908-0.178-5.551-0.661-6.781
	c0,0,3.097-1.851,6.725-1.851c4.384,0,5.092,2.157,5.092,8.632v11.449h2.611v-11.584c0-8.143-1.369-10.872-7.392-10.872
	c-4.071,0-7.97,2.332-7.97,2.332c-1.104-1.63-2.74-2.332-5.797-2.332c-3.406,0-6.772,2.067-6.772,2.067v-1.629h-2.611v22.018
	H487.747z M530.979,163.89c-4.646,0-6.152-2.771-6.152-7.969h15.05l0.088-2.113c0-7.399-3.008-10.434-8.718-10.434
	c-5.402,0-9.119,3.034-9.119,11.535c0,7.354,1.991,11.315,8.587,11.36c3.452,0,8.452-0.615,8.452-0.615l-0.088-2.158
	C539.078,163.497,534.211,163.89,530.979,163.89 M524.826,153.72c0-5.856,2.391-8.059,6.42-8.059c4.158,0,6.062,2.114,6.062,8.059
	H524.826z M546.411,165.831h2.613v-16.514c0,0,4.114-2.423,8.366-3.304v-2.639c-4.517,0.834-8.366,3.607-8.366,3.607v-3.169h-2.613
	V165.831z M570.078,143.375c-6.591,0-9.162,2.993-9.162,11.052c0,8.672,1.947,11.844,9.117,11.844c1.904,0,5.844-0.527,5.844-0.527
	l-0.09-2.246c0,0-3.585,0.394-5.266,0.394c-5.8,0-6.859-2.553-6.859-9.464c0-6.343,1.547-8.677,6.859-8.677
	c1.681,0,5.178,0.44,5.178,0.44l0.135-2.244C575.834,143.946,571.984,143.375,570.078,143.375 M589.584,163.89
	c-4.646,0-6.154-2.771-6.154-7.969h15.054l0.088-2.113c0-7.399-3.014-10.434-8.72-10.434c-5.402,0-9.119,3.034-9.119,11.535
	c0,7.354,1.993,11.315,8.587,11.36c3.456,0,8.456-0.615,8.456-0.615l-0.088-2.158C597.688,163.497,592.816,163.89,589.584,163.89
	 M583.43,153.72c0-5.856,2.393-8.059,6.422-8.059c4.162,0,6.062,2.114,6.062,8.059H583.43z"/>
<g>
	<defs>
		<path id="SVGID_3_" d="M71.162,55.72c-3.728,0-6.751,3-6.751,6.701c0,3.703,3.024,6.705,6.751,6.705h51.587
			c3.727,0,6.75-3.001,6.75-6.705c0-3.702-3.024-6.701-6.75-6.701H71.162z"/>
	</defs>
	<use xlink:href="#SVGID_3_"  overflow="visible" fill="#E95C1F"/>
	<clipPath id="SVGID_4_">
		<use xlink:href="#SVGID_3_"  overflow="visible"/>
	</clipPath>
</g>
<g>
	<defs>
		<path id="SVGID_5_" d="M71.162,109.197c-3.728,0-6.751,3.001-6.751,6.703c0,3.699,3.024,6.701,6.751,6.701h51.587
			c3.727,0,6.75-3.002,6.75-6.701c0-3.702-3.024-6.703-6.75-6.703H71.162z"/>
	</defs>
	<use xlink:href="#SVGID_5_"  overflow="visible" fill="#E95C1F"/>
	<clipPath id="SVGID_6_">
		<use xlink:href="#SVGID_5_"  overflow="visible"/>
	</clipPath>
</g>
</svg>
